<mxfile host="app.diagrams.net" agent="Mozilla/5.0 (Windows NT 10.0; Win64; x64) AppleWebKit/537.36 (KHTML, like Gecko) Chrome/133.0.0.0 Safari/537.36 Edg/133.0.0.0" version="26.0.14">
  <diagram id="R2lEEEUBdFMjLlhIrx00" name="Page-1">
    <mxGraphModel dx="1586" dy="925" grid="1" gridSize="10" guides="1" tooltips="1" connect="1" arrows="1" fold="1" page="1" pageScale="1" pageWidth="850" pageHeight="1100" math="0" shadow="0" extFonts="Permanent Marker^https://fonts.googleapis.com/css?family=Permanent+Marker">
      <root>
        <mxCell id="0" />
        <mxCell id="1" parent="0" />
        <mxCell id="hmqWnQX6e8T_Zal-hiCN-38" style="edgeStyle=orthogonalEdgeStyle;rounded=0;orthogonalLoop=1;jettySize=auto;html=1;" edge="1" parent="1" source="hmqWnQX6e8T_Zal-hiCN-2" target="hmqWnQX6e8T_Zal-hiCN-3">
          <mxGeometry relative="1" as="geometry">
            <Array as="points">
              <mxPoint x="425" y="300" />
              <mxPoint x="85" y="300" />
            </Array>
          </mxGeometry>
        </mxCell>
        <mxCell id="hmqWnQX6e8T_Zal-hiCN-39" style="edgeStyle=orthogonalEdgeStyle;rounded=0;orthogonalLoop=1;jettySize=auto;html=1;entryX=0.5;entryY=0;entryDx=0;entryDy=0;" edge="1" parent="1" source="hmqWnQX6e8T_Zal-hiCN-2" target="hmqWnQX6e8T_Zal-hiCN-4">
          <mxGeometry relative="1" as="geometry" />
        </mxCell>
        <mxCell id="hmqWnQX6e8T_Zal-hiCN-40" style="edgeStyle=orthogonalEdgeStyle;rounded=0;orthogonalLoop=1;jettySize=auto;html=1;entryX=0.5;entryY=0;entryDx=0;entryDy=0;" edge="1" parent="1" source="hmqWnQX6e8T_Zal-hiCN-2" target="hmqWnQX6e8T_Zal-hiCN-5">
          <mxGeometry relative="1" as="geometry" />
        </mxCell>
        <mxCell id="hmqWnQX6e8T_Zal-hiCN-41" style="edgeStyle=orthogonalEdgeStyle;rounded=0;orthogonalLoop=1;jettySize=auto;html=1;entryX=0.5;entryY=0;entryDx=0;entryDy=0;" edge="1" parent="1" source="hmqWnQX6e8T_Zal-hiCN-2" target="hmqWnQX6e8T_Zal-hiCN-6">
          <mxGeometry relative="1" as="geometry">
            <Array as="points">
              <mxPoint x="425" y="300" />
              <mxPoint x="765" y="300" />
            </Array>
          </mxGeometry>
        </mxCell>
        <mxCell id="hmqWnQX6e8T_Zal-hiCN-2" value="&lt;font style=&quot;font-size: 23px;&quot;&gt;Quản lý Blog&lt;/font&gt;" style="rounded=0;whiteSpace=wrap;html=1;" vertex="1" parent="1">
          <mxGeometry x="290" y="170" width="270" height="60" as="geometry" />
        </mxCell>
        <mxCell id="hmqWnQX6e8T_Zal-hiCN-8" value="" style="edgeStyle=orthogonalEdgeStyle;rounded=0;orthogonalLoop=1;jettySize=auto;html=1;endArrow=none;startFill=0;" edge="1" parent="1" target="hmqWnQX6e8T_Zal-hiCN-7">
          <mxGeometry relative="1" as="geometry">
            <mxPoint x="20" y="420" as="sourcePoint" />
            <Array as="points">
              <mxPoint x="20" y="500" />
            </Array>
          </mxGeometry>
        </mxCell>
        <mxCell id="hmqWnQX6e8T_Zal-hiCN-3" value="&lt;font style=&quot;font-size: 18px;&quot;&gt;Quản lý bài viết&lt;/font&gt;" style="rounded=0;whiteSpace=wrap;html=1;" vertex="1" parent="1">
          <mxGeometry y="370" width="170" height="60" as="geometry" />
        </mxCell>
        <mxCell id="hmqWnQX6e8T_Zal-hiCN-4" value="&lt;font style=&quot;font-size: 18px;&quot;&gt;Quản lý danh mục&lt;/font&gt;" style="rounded=0;whiteSpace=wrap;html=1;" vertex="1" parent="1">
          <mxGeometry x="230" y="370" width="170" height="60" as="geometry" />
        </mxCell>
        <mxCell id="hmqWnQX6e8T_Zal-hiCN-5" value="&lt;font style=&quot;font-size: 18px;&quot;&gt;Quản lý người dùng&lt;/font&gt;" style="rounded=0;whiteSpace=wrap;html=1;" vertex="1" parent="1">
          <mxGeometry x="440" y="370" width="200" height="60" as="geometry" />
        </mxCell>
        <mxCell id="hmqWnQX6e8T_Zal-hiCN-6" value="&lt;span style=&quot;font-size: 18px;&quot;&gt;Tương tác&lt;/span&gt;" style="rounded=0;whiteSpace=wrap;html=1;" vertex="1" parent="1">
          <mxGeometry x="680" y="370" width="170" height="60" as="geometry" />
        </mxCell>
        <mxCell id="hmqWnQX6e8T_Zal-hiCN-7" value="&lt;span style=&quot;font-size: 17px;&quot;&gt;Đăng bài&lt;/span&gt;" style="whiteSpace=wrap;html=1;rounded=0;" vertex="1" parent="1">
          <mxGeometry x="50" y="470" width="120" height="40" as="geometry" />
        </mxCell>
        <mxCell id="hmqWnQX6e8T_Zal-hiCN-9" value="&lt;span style=&quot;font-size: 17px;&quot;&gt;Duyệt bài&lt;/span&gt;" style="whiteSpace=wrap;html=1;rounded=0;" vertex="1" parent="1">
          <mxGeometry x="50" y="540" width="120" height="40" as="geometry" />
        </mxCell>
        <mxCell id="hmqWnQX6e8T_Zal-hiCN-10" value="&lt;span style=&quot;font-size: 17px;&quot;&gt;Sửa bài&lt;/span&gt;" style="whiteSpace=wrap;html=1;rounded=0;" vertex="1" parent="1">
          <mxGeometry x="50" y="610" width="120" height="40" as="geometry" />
        </mxCell>
        <mxCell id="hmqWnQX6e8T_Zal-hiCN-11" value="&lt;span style=&quot;font-size: 17px;&quot;&gt;Xoá bài&lt;/span&gt;" style="whiteSpace=wrap;html=1;rounded=0;" vertex="1" parent="1">
          <mxGeometry x="50" y="680" width="120" height="40" as="geometry" />
        </mxCell>
        <mxCell id="hmqWnQX6e8T_Zal-hiCN-12" value="" style="edgeStyle=orthogonalEdgeStyle;rounded=0;orthogonalLoop=1;jettySize=auto;html=1;endArrow=none;startFill=0;entryX=0;entryY=0.75;entryDx=0;entryDy=0;" edge="1" parent="1" target="hmqWnQX6e8T_Zal-hiCN-10">
          <mxGeometry relative="1" as="geometry">
            <mxPoint x="20" y="430" as="sourcePoint" />
            <mxPoint x="60" y="510" as="targetPoint" />
            <Array as="points">
              <mxPoint x="20" y="640" />
            </Array>
          </mxGeometry>
        </mxCell>
        <mxCell id="hmqWnQX6e8T_Zal-hiCN-13" value="" style="edgeStyle=orthogonalEdgeStyle;rounded=0;orthogonalLoop=1;jettySize=auto;html=1;endArrow=none;startFill=0;entryX=0;entryY=0.5;entryDx=0;entryDy=0;" edge="1" parent="1" target="hmqWnQX6e8T_Zal-hiCN-11">
          <mxGeometry relative="1" as="geometry">
            <mxPoint x="20" y="430" as="sourcePoint" />
            <mxPoint x="70" y="520" as="targetPoint" />
            <Array as="points">
              <mxPoint x="20" y="700" />
            </Array>
          </mxGeometry>
        </mxCell>
        <mxCell id="hmqWnQX6e8T_Zal-hiCN-16" value="&lt;span style=&quot;font-size: 17px;&quot;&gt;Tìm kiếm&lt;/span&gt;" style="whiteSpace=wrap;html=1;rounded=0;" vertex="1" parent="1">
          <mxGeometry x="50" y="750" width="120" height="40" as="geometry" />
        </mxCell>
        <mxCell id="hmqWnQX6e8T_Zal-hiCN-17" value="" style="edgeStyle=orthogonalEdgeStyle;rounded=0;orthogonalLoop=1;jettySize=auto;html=1;endArrow=none;startFill=0;entryX=0;entryY=0.5;entryDx=0;entryDy=0;" edge="1" parent="1" target="hmqWnQX6e8T_Zal-hiCN-16">
          <mxGeometry relative="1" as="geometry">
            <mxPoint x="20" y="430" as="sourcePoint" />
            <mxPoint x="50" y="770" as="targetPoint" />
            <Array as="points">
              <mxPoint x="20" y="770" />
            </Array>
          </mxGeometry>
        </mxCell>
        <mxCell id="hmqWnQX6e8T_Zal-hiCN-18" value="" style="edgeStyle=orthogonalEdgeStyle;rounded=0;orthogonalLoop=1;jettySize=auto;html=1;endArrow=none;startFill=0;entryX=0;entryY=0.5;entryDx=0;entryDy=0;" edge="1" parent="1" target="hmqWnQX6e8T_Zal-hiCN-9">
          <mxGeometry relative="1" as="geometry">
            <mxPoint x="21" y="430" as="sourcePoint" />
            <mxPoint x="60" y="780" as="targetPoint" />
            <Array as="points">
              <mxPoint x="21" y="560" />
            </Array>
          </mxGeometry>
        </mxCell>
        <mxCell id="hmqWnQX6e8T_Zal-hiCN-19" value="" style="edgeStyle=orthogonalEdgeStyle;rounded=0;orthogonalLoop=1;jettySize=auto;html=1;endArrow=none;startFill=0;" edge="1" target="hmqWnQX6e8T_Zal-hiCN-20" parent="1">
          <mxGeometry relative="1" as="geometry">
            <mxPoint x="230" y="420" as="sourcePoint" />
            <Array as="points">
              <mxPoint x="230" y="500" />
            </Array>
          </mxGeometry>
        </mxCell>
        <mxCell id="hmqWnQX6e8T_Zal-hiCN-20" value="&lt;span style=&quot;font-size: 17px;&quot;&gt;Thêm danh mục&lt;/span&gt;" style="whiteSpace=wrap;html=1;rounded=0;" vertex="1" parent="1">
          <mxGeometry x="260" y="470" width="140" height="40" as="geometry" />
        </mxCell>
        <mxCell id="hmqWnQX6e8T_Zal-hiCN-21" value="&lt;span style=&quot;font-size: 17px;&quot;&gt;Sửa danh mục&lt;/span&gt;" style="whiteSpace=wrap;html=1;rounded=0;" vertex="1" parent="1">
          <mxGeometry x="260" y="540" width="140" height="40" as="geometry" />
        </mxCell>
        <mxCell id="hmqWnQX6e8T_Zal-hiCN-22" value="&lt;span style=&quot;font-size: 17px;&quot;&gt;Xoá danh mục&lt;/span&gt;" style="whiteSpace=wrap;html=1;rounded=0;" vertex="1" parent="1">
          <mxGeometry x="260" y="610" width="140" height="40" as="geometry" />
        </mxCell>
        <mxCell id="hmqWnQX6e8T_Zal-hiCN-23" value="&lt;span style=&quot;font-size: 17px;&quot;&gt;Tìm kiếm theo danh mục&lt;/span&gt;" style="whiteSpace=wrap;html=1;rounded=0;" vertex="1" parent="1">
          <mxGeometry x="260" y="680" width="140" height="70" as="geometry" />
        </mxCell>
        <mxCell id="hmqWnQX6e8T_Zal-hiCN-24" value="" style="edgeStyle=orthogonalEdgeStyle;rounded=0;orthogonalLoop=1;jettySize=auto;html=1;endArrow=none;startFill=0;entryX=0;entryY=0.75;entryDx=0;entryDy=0;" edge="1" target="hmqWnQX6e8T_Zal-hiCN-22" parent="1">
          <mxGeometry relative="1" as="geometry">
            <mxPoint x="230" y="430" as="sourcePoint" />
            <mxPoint x="270" y="510" as="targetPoint" />
            <Array as="points">
              <mxPoint x="230" y="640" />
            </Array>
          </mxGeometry>
        </mxCell>
        <mxCell id="hmqWnQX6e8T_Zal-hiCN-25" value="" style="edgeStyle=orthogonalEdgeStyle;rounded=0;orthogonalLoop=1;jettySize=auto;html=1;endArrow=none;startFill=0;entryX=0;entryY=0.5;entryDx=0;entryDy=0;exitX=0.116;exitY=1.034;exitDx=0;exitDy=0;exitPerimeter=0;" edge="1" target="hmqWnQX6e8T_Zal-hiCN-23" parent="1">
          <mxGeometry relative="1" as="geometry">
            <mxPoint x="230" y="422" as="sourcePoint" />
            <mxPoint x="280" y="520" as="targetPoint" />
            <Array as="points">
              <mxPoint x="230" y="715" />
            </Array>
          </mxGeometry>
        </mxCell>
        <mxCell id="hmqWnQX6e8T_Zal-hiCN-28" value="" style="edgeStyle=orthogonalEdgeStyle;rounded=0;orthogonalLoop=1;jettySize=auto;html=1;endArrow=none;startFill=0;entryX=0;entryY=0.5;entryDx=0;entryDy=0;" edge="1" target="hmqWnQX6e8T_Zal-hiCN-21" parent="1">
          <mxGeometry relative="1" as="geometry">
            <mxPoint x="231" y="440" as="sourcePoint" />
            <mxPoint x="270" y="780" as="targetPoint" />
            <Array as="points">
              <mxPoint x="231" y="560" />
            </Array>
          </mxGeometry>
        </mxCell>
        <mxCell id="hmqWnQX6e8T_Zal-hiCN-30" value="" style="edgeStyle=orthogonalEdgeStyle;rounded=0;orthogonalLoop=1;jettySize=auto;html=1;endArrow=none;startFill=0;" edge="1" target="hmqWnQX6e8T_Zal-hiCN-31" parent="1">
          <mxGeometry relative="1" as="geometry">
            <mxPoint x="680" y="430" as="sourcePoint" />
            <Array as="points">
              <mxPoint x="680" y="480" />
            </Array>
          </mxGeometry>
        </mxCell>
        <mxCell id="hmqWnQX6e8T_Zal-hiCN-31" value="&lt;span style=&quot;font-size: 17px;&quot;&gt;Thêm binh luận&lt;/span&gt;" style="whiteSpace=wrap;html=1;rounded=0;" vertex="1" parent="1">
          <mxGeometry x="710" y="460" width="140" height="40" as="geometry" />
        </mxCell>
        <mxCell id="hmqWnQX6e8T_Zal-hiCN-32" value="&lt;span style=&quot;font-size: 17px;&quot;&gt;Duyệt bình luận&lt;/span&gt;" style="whiteSpace=wrap;html=1;rounded=0;" vertex="1" parent="1">
          <mxGeometry x="710" y="530" width="140" height="40" as="geometry" />
        </mxCell>
        <mxCell id="hmqWnQX6e8T_Zal-hiCN-33" value="&lt;span style=&quot;font-size: 17px;&quot;&gt;Xoá bình luận&lt;/span&gt;" style="whiteSpace=wrap;html=1;rounded=0;" vertex="1" parent="1">
          <mxGeometry x="710" y="600" width="140" height="40" as="geometry" />
        </mxCell>
        <mxCell id="hmqWnQX6e8T_Zal-hiCN-35" value="" style="edgeStyle=orthogonalEdgeStyle;rounded=0;orthogonalLoop=1;jettySize=auto;html=1;endArrow=none;startFill=0;entryX=0;entryY=0.5;entryDx=0;entryDy=0;" edge="1" target="hmqWnQX6e8T_Zal-hiCN-33" parent="1">
          <mxGeometry relative="1" as="geometry">
            <mxPoint x="680" y="430" as="sourcePoint" />
            <mxPoint x="720" y="520" as="targetPoint" />
            <Array as="points">
              <mxPoint x="680" y="620" />
            </Array>
          </mxGeometry>
        </mxCell>
        <mxCell id="hmqWnQX6e8T_Zal-hiCN-37" value="" style="edgeStyle=orthogonalEdgeStyle;rounded=0;orthogonalLoop=1;jettySize=auto;html=1;endArrow=none;startFill=0;entryX=0;entryY=0.5;entryDx=0;entryDy=0;exitX=0.123;exitY=1.015;exitDx=0;exitDy=0;exitPerimeter=0;" edge="1" target="hmqWnQX6e8T_Zal-hiCN-32" parent="1">
          <mxGeometry relative="1" as="geometry">
            <mxPoint x="681" y="431" as="sourcePoint" />
            <mxPoint x="720" y="790" as="targetPoint" />
            <Array as="points">
              <mxPoint x="681" y="550" />
            </Array>
          </mxGeometry>
        </mxCell>
        <mxCell id="hmqWnQX6e8T_Zal-hiCN-42" value="" style="edgeStyle=orthogonalEdgeStyle;rounded=0;orthogonalLoop=1;jettySize=auto;html=1;endArrow=none;startFill=0;" edge="1" target="hmqWnQX6e8T_Zal-hiCN-43" parent="1">
          <mxGeometry relative="1" as="geometry">
            <mxPoint x="460" y="430" as="sourcePoint" />
            <Array as="points">
              <mxPoint x="460" y="490" />
            </Array>
          </mxGeometry>
        </mxCell>
        <mxCell id="hmqWnQX6e8T_Zal-hiCN-43" value="&lt;span style=&quot;font-size: 17px;&quot;&gt;Đăng ký&lt;/span&gt;" style="whiteSpace=wrap;html=1;rounded=0;" vertex="1" parent="1">
          <mxGeometry x="490" y="460" width="140" height="40" as="geometry" />
        </mxCell>
        <mxCell id="hmqWnQX6e8T_Zal-hiCN-44" value="&lt;span style=&quot;font-size: 17px;&quot;&gt;Đăng nhập&lt;/span&gt;" style="whiteSpace=wrap;html=1;rounded=0;" vertex="1" parent="1">
          <mxGeometry x="490" y="530" width="140" height="40" as="geometry" />
        </mxCell>
        <mxCell id="hmqWnQX6e8T_Zal-hiCN-45" value="&lt;span style=&quot;font-size: 17px;&quot;&gt;Chỉnh sửa hồ sơ&lt;/span&gt;" style="whiteSpace=wrap;html=1;rounded=0;" vertex="1" parent="1">
          <mxGeometry x="490" y="600" width="160" height="40" as="geometry" />
        </mxCell>
        <mxCell id="hmqWnQX6e8T_Zal-hiCN-46" value="&lt;span style=&quot;font-size: 17px;&quot;&gt;Tìm kiếm theo danh mục&lt;/span&gt;" style="whiteSpace=wrap;html=1;rounded=0;" vertex="1" parent="1">
          <mxGeometry x="490" y="670" width="140" height="70" as="geometry" />
        </mxCell>
        <mxCell id="hmqWnQX6e8T_Zal-hiCN-47" value="" style="edgeStyle=orthogonalEdgeStyle;rounded=0;orthogonalLoop=1;jettySize=auto;html=1;endArrow=none;startFill=0;entryX=0;entryY=0.75;entryDx=0;entryDy=0;" edge="1" target="hmqWnQX6e8T_Zal-hiCN-45" parent="1">
          <mxGeometry relative="1" as="geometry">
            <mxPoint x="460" y="430" as="sourcePoint" />
            <mxPoint x="500" y="500" as="targetPoint" />
            <Array as="points">
              <mxPoint x="460" y="630" />
            </Array>
          </mxGeometry>
        </mxCell>
        <mxCell id="hmqWnQX6e8T_Zal-hiCN-48" value="" style="edgeStyle=orthogonalEdgeStyle;rounded=0;orthogonalLoop=1;jettySize=auto;html=1;endArrow=none;startFill=0;entryX=0;entryY=0.5;entryDx=0;entryDy=0;" edge="1" target="hmqWnQX6e8T_Zal-hiCN-46" parent="1">
          <mxGeometry relative="1" as="geometry">
            <mxPoint x="460" y="430" as="sourcePoint" />
            <mxPoint x="510" y="510" as="targetPoint" />
            <Array as="points">
              <mxPoint x="460" y="705" />
            </Array>
          </mxGeometry>
        </mxCell>
        <mxCell id="hmqWnQX6e8T_Zal-hiCN-49" value="" style="edgeStyle=orthogonalEdgeStyle;rounded=0;orthogonalLoop=1;jettySize=auto;html=1;endArrow=none;startFill=0;entryX=0;entryY=0.5;entryDx=0;entryDy=0;" edge="1" target="hmqWnQX6e8T_Zal-hiCN-44" parent="1">
          <mxGeometry relative="1" as="geometry">
            <mxPoint x="461" y="430" as="sourcePoint" />
            <mxPoint x="500" y="770" as="targetPoint" />
            <Array as="points">
              <mxPoint x="461" y="550" />
            </Array>
          </mxGeometry>
        </mxCell>
      </root>
    </mxGraphModel>
  </diagram>
</mxfile>
